<svg xmlns="http://www.w3.org/2000/svg" viewBox="0 0 343.37 80.53"><defs><linearGradient id="a" x1="12.09" y1="34.6" x2="31.51" y2="15.18" gradientUnits="userSpaceOnUse"><stop offset="0" stop-color="#ff7f41"/><stop offset="1" stop-color="#f6ae4d"/></linearGradient><linearGradient id="b" x1="33.92" y1="25.71" x2="-29.78" y2="96.82" gradientUnits="userSpaceOnUse"><stop offset="0" stop-color="#dc5c4d"/><stop offset="1" stop-color="#f69239" stop-opacity="0"/></linearGradient><linearGradient id="c" x1="53.62" y1="12.06" x2="53.62" y2="32.32" gradientUnits="userSpaceOnUse"><stop offset="0" stop-color="#dc5c1e"/><stop offset="1" stop-color="#f6921e" stop-opacity="0"/></linearGradient></defs><path d="M60.89 14.63H46.36v15.86c0 8.76-7.1 15.86-15.86 15.86-3.36 0-6.48-1.05-9.05-2.84L11.22 53.74c3.3 2.84 7.01 5.05 10.58 6.03 7.78 2.15 15.27 1.3 21.59-1.65 5.91-2.76 12.87-1.88 17.48 2.73l.02.02V14.63z" fill="#ff7f41"/><path d="M14.63 30.49c0-8.76 7.1-15.86 15.86-15.86h30.39L46.26 0H30.5C10.8 0-4.54 18.68 1.23 39.29c1.42 5.07 5.29 10.42 9.98 14.46l10.23-10.23c-4.12-2.87-6.82-7.62-6.82-13.02z" fill="url(#a)"/><path d="M30.49 46.36c-8.76 0-15.86-7.1-15.86-15.86 0-.49.03-.98.07-1.46.02-.24.06-.47.09-.7.03-.21.06-.43.1-.64.06-.34.13-.67.22-1 .01-.05.02-.1.04-.15.52-2.05 1.44-3.93 2.68-5.57h-.01L.96 37.82c.49 2.05 1.2 4.01 2.08 5.89 3.78 7.16 11.44 13.97 18.58 16.02.12.03.24.07.36.1.44.12.88.2 1.31.3l18.42-18.42a15.826 15.826 0 01-11.22 4.65z" fill="url(#b)"/><path d="M30.49 14.63c-8.76 0-15.86 7.1-15.86 15.86s7.1 15.86 15.86 15.86 15.86-7.1 15.86-15.86V14.63H30.49z" fill="none"/><path fill="url(#c)" opacity=".7" d="M46.36 14.63h14.53v18.28H46.36z"/><path d="M98.19 61.36c-5.43 0-10.29-1.32-14.59-3.97s-7.68-6.29-10.16-10.93c-2.47-4.64-3.71-9.88-3.71-15.72s1.24-11.08 3.71-15.72c2.47-4.64 5.86-8.28 10.16-10.93S92.76.11 98.19.11c8.59 0 15.23 3.23 19.9 9.69V1.56h13.82v78.97h-13.82V51.66c-4.67 6.46-11.31 9.69-19.9 9.69zm17.58-21.75c1.55-2.68 2.32-5.64 2.32-8.87s-.77-6.19-2.32-8.87-3.64-4.81-6.29-6.39-5.55-2.37-8.71-2.37-6.07.79-8.71 2.37c-2.65 1.58-4.74 3.71-6.29 6.39-1.55 2.68-2.32 5.64-2.32 8.87s.77 6.19 2.32 8.87c1.55 2.68 3.64 4.81 6.29 6.39s5.55 2.37 8.71 2.37 6.07-.79 8.71-2.37c2.65-1.58 4.74-3.71 6.29-6.39zm30.26 6.85c-2.47-4.64-3.71-9.88-3.71-15.72s1.24-11.08 3.71-15.72c2.47-4.64 5.86-8.28 10.16-10.93S165.34.11 170.77.11c8.59 0 15.23 3.23 19.9 9.69V1.56h13.82v58.35h-13.82v-8.25c-4.67 6.46-11.31 9.69-19.9 9.69-5.43 0-10.29-1.32-14.59-3.97s-7.68-6.29-10.16-10.93zm42.32-6.86c1.55-2.68 2.32-5.64 2.32-8.87s-.77-6.19-2.32-8.87-3.64-4.81-6.29-6.39-5.55-2.37-8.71-2.37-6.07.79-8.71 2.37c-2.65 1.58-4.74 3.71-6.29 6.39-1.55 2.68-2.32 5.64-2.32 8.87s.77 6.19 2.32 8.87c1.55 2.68 3.64 4.81 6.29 6.39s5.55 2.37 8.71 2.37 6.07-.79 8.71-2.37c2.65-1.58 4.74-3.71 6.29-6.39zm29.34-38.04h13.71v6.91c1.99-2.82 4.52-4.91 7.58-6.29C242.04.8 245.39.12 249.03.12c5.36 0 9.79 1.27 13.3 3.82 2.89 1.86 5.1 4.33 6.65 7.42 1.55 3.09 2.32 6.6 2.32 10.52v38.03h-13.71V24.03c0-3.44-1.12-6.13-3.35-8.09S249 13 245.22 13c-4.33 0-7.72 1.2-10.16 3.61-2.44 2.41-3.66 5.88-3.66 10.41v32.89h-13.71V1.56zm67.22 44.9c-2.47-4.64-3.71-9.88-3.71-15.72s1.24-11.08 3.71-15.72c2.47-4.64 5.86-8.28 10.16-10.93S304.22.11 309.65.11c8.59 0 15.23 3.23 19.9 9.69V1.56h13.82v58.35h-13.82v-8.25c-4.67 6.46-11.31 9.69-19.9 9.69-5.43 0-10.29-1.32-14.59-3.97s-7.68-6.29-10.16-10.93zm42.32-6.86c1.55-2.68 2.32-5.64 2.32-8.87s-.77-6.19-2.32-8.87-3.64-4.81-6.29-6.39-5.55-2.37-8.71-2.37-6.07.79-8.71 2.37c-2.65 1.58-4.74 3.71-6.29 6.39-1.55 2.68-2.32 5.64-2.32 8.87s.77 6.19 2.32 8.87c1.55 2.68 3.64 4.81 6.29 6.39s5.55 2.37 8.71 2.37 6.07-.79 8.71-2.37c2.65-1.58 4.74-3.71 6.29-6.39z" fill="#00416b"/></svg>